HIERARCHY
ROOT Hips
{
  OFFSET -33.9132 29.2015 117.021
  CHANNELS 6 Xposition Yposition Zposition Zrotation Xrotation Yrotation
  JOINT LeftUpLeg
  {
    OFFSET 8.64259 1.95398 -2.38835
    CHANNELS 3 Zrotation Xrotation Yrotation
    JOINT LeftLeg
    {
      OFFSET 43.7702 0 0
      CHANNELS 3 Zrotation Xrotation Yrotation
      JOINT LeftFoot
      {
        OFFSET 40.6238 0 0
        CHANNELS 3 Zrotation Xrotation Yrotation
        JOINT LeftToeBase
        {
          OFFSET 12.7242 0 0
          CHANNELS 3 Zrotation Xrotation Yrotation
          End Site
          {
            OFFSET 0 0 0
          }
        }
      }
    }
  }
  JOINT RightUpLeg
  {
    OFFSET -8.2249 1.95398 -2.59336
    CHANNELS 3 Zrotation Xrotation Yrotation
    JOINT RightLeg
    {
      OFFSET 43.5653 0 0
      CHANNELS 3 Zrotation Xrotation Yrotation
      JOINT RightFoot
      {
        OFFSET 40.6238 0 0
        CHANNELS 3 Zrotation Xrotation Yrotation
        JOINT RightToeBase
        {
          OFFSET 12.7242 0 0
          CHANNELS 3 Zrotation Xrotation Yrotation
          End Site
          {
            OFFSET 0 0 0
          }
        }
      }
    }
  }
  JOINT Spine
  {
    OFFSET 0.165834 0.87714 6.61349
    CHANNELS 3 Zrotation Xrotation Yrotation
    JOINT Spine1
    {
      OFFSET 7.38963 1.71661e-005 0
      CHANNELS 3 Zrotation Xrotation Yrotation
      JOINT Spine2
      {
        OFFSET 11.9445 1.14441e-005 0
        CHANNELS 3 Zrotation Xrotation Yrotation
        JOINT Spine3
        {
          OFFSET 14.7254 4.19617e-005 0
          CHANNELS 3 Zrotation Xrotation Yrotation
          JOINT Spine4
          {
            OFFSET 10.9679 0 0
            CHANNELS 3 Zrotation Xrotation Yrotation
            JOINT RightShoulder
            {
              OFFSET 2.46616 -1.6653 3.69651
              CHANNELS 3 Zrotation Xrotation Yrotation
              JOINT RightArm
              {
                OFFSET 13.0012 0 0
                CHANNELS 3 Zrotation Xrotation Yrotation
                JOINT RightForeArm
                {
                  OFFSET 28.7848 1.62311e-005 0
                  CHANNELS 3 Zrotation Xrotation Yrotation
                  JOINT RightHand
                  {
                    OFFSET 26.5688 1.62095e-005 0
                    CHANNELS 3 Zrotation Xrotation Yrotation
                    End Site
                    {
                      OFFSET 0 0 0
                    }
                  }
                }
              }
            }
            JOINT LeftShoulder
            {
              OFFSET 2.38034 -1.29275 -3.7523
              CHANNELS 3 Zrotation Xrotation Yrotation
              JOINT LeftArm
              {
                OFFSET 16.3182 6.07031e-005 0
                CHANNELS 3 Zrotation Xrotation Yrotation
                JOINT LeftForeArm
                {
                  OFFSET 27.0901 0 0
                  CHANNELS 3 Zrotation Xrotation Yrotation
                  JOINT LeftHand
                  {
                    OFFSET 24.5451 1.51738e-005 0
                    CHANNELS 3 Zrotation Xrotation Yrotation
                    End Site
                    {
                      OFFSET 0 0 0
                    }
                  }
                }
              }
            }
            JOINT Neck
            {
              OFFSET 5.0226 -0.0266342 0
              CHANNELS 3 Zrotation Xrotation Yrotation
              JOINT Head
              {
                OFFSET 6.69364 2.86102e-005 0
                CHANNELS 3 Zrotation Xrotation Yrotation
                End Site
                {
                  OFFSET 0 0 0
                }
              }
            }
          }
        }
      }
    }
  }
}
MOTION
Frames:	7
Frame Time:	0.0416667
70.7043 99.9824 -41.3492 102.133 45.2213 84.3768 -174.545 -4.84874 87.3353 -22.7596 14.3232 -0.320761 80.3595 12.4385 -1.57578 7.0343 -16.1707 7.41047 -179.745 16.0877 94.1452 -29.0704 -11.0574 -2.7832 66.0105 -5.15258 -2.82696 21.2789 2.14783 4.15213 -0.361395 8.12073 -90.3629 10.6296 -0.88659 -0.640902 -1.04113 -0.913949 -0.601262 -23.5765 -0.653 -0.877722 -3.56386 -0.652998 -0.877731 89.924 -28.2568 -107.598 36.4049 1.36724 -11.1765 0.542833 4.17617 -44.2714 -1.40568 0.16886 -33.1382 -89.2153 -44.8824 78.8137 -29.4946 -6.63445 -25.0761 -18.3275 -22.1059 -20.6053 -3.55967 0.18694 -28.1295 -2.07356 1.57649 -9.84636 -4.26658 2.72225 3.15814 
73.9858 99.5665 -44.3944 102.39 47.2912 83.8892 -173.675 -8.94852 88.4714 -20.5398 17.5284 -0.500571 82.4475 14.3052 -1.50864 9.97592 -16.1913 10.129 -179.923 16.0369 94.7422 -16.9498 -12.901 -1.84445 64.7774 -4.34443 -2.68425 22.3623 1.62738 4.33397 -0.5854 8.18629 -90.3146 10.4985 -1.31039 -0.508544 -1.17181 -1.3315 -0.450364 -23.7102 -1.09698 -0.87889 -3.69754 -1.09698 -0.878889 90.2736 -28.4139 -106.826 36.0648 1.58779 -9.66853 1.05585 4.39041 -46.4704 -2.57816 0.441302 -31.5701 -89.2839 -44.4044 78.5967 -30.0111 -5.6843 -26.8622 -17.0287 -18.8872 -19.2217 -9.96122 1.96091 -35.2301 -1.59624 1.3239 -11.2746 -3.88991 2.70148 3.15456 
77.473 98.7258 -47.845 102.726 47.8287 83.8349 -172.229 -13.4046 90.1373 -18.3546 19.2317 -0.950479 84.6584 15.9577 -1.62123 9.20915 -16.106 9.29143 179.199 15.8465 96.1655 -7.94443 -8.80256 0.403451 63.4469 -2.95174 -1.04398 25.3547 0.700299 3.12069 -0.650453 8.24555 -90.2959 10.3801 -1.43129 -0.462803 -1.29008 -1.45027 -0.399351 -23.8295 -1.22601 -0.871614 -3.81687 -1.22605 -0.871621 90.3818 -28.6007 -106.533 35.7356 1.85432 -8.8869 2.18023 5.29992 -47.8421 -0.946022 0.0494974 -31.0019 -89.3143 -44.5492 78.5812 -30.1742 -5.68286 -28.024 -17.0012 -19.1235 -19.0977 -7.88123 1.36244 -33.5315 -1.83645 1.25116 -12.2906 -3.20865 2.74852 3.64175 
81.2379 97.3976 -51.576 103.016 47.6576 83.914 -170.869 -17.6236 91.5092 -17.5498 18.6789 -1.22385 87.7212 17.4486 -2.81363 11.1763 -15.8794 10.857 179.297 16.8906 98.0051 -7.10087 -4.65825 1.75176 64.4899 -3.4875 -1.12028 27.2754 0.158018 2.04553 -0.664699 8.27356 -90.3276 10.3237 -1.47412 -0.523069 -1.34651 -1.4957 -0.457683 -23.886 -1.24875 -0.941967 -3.87336 -1.24875 -0.941974 90.2916 -28.8584 -106.616 35.3018 1.95351 -6.88328 2.8547 5.2524 -51.3956 -3.44786 0.50662 -27.0932 -89.4656 -44.7769 78.3927 -30.5603 -6.00663 -28.3864 -16.7834 -19.034 -18.8119 -7.35791 1.16782 -32.6525 -1.79953 1.31218 -11.9906 -3.14564 2.77752 3.71178 
84.8285 96.4139 -56.1669 102.508 49.6496 83.7576 -170.64 -21.1697 91.7048 -16.5417 22.0019 -0.802593 85.4418 17.9353 1.05035 15.9316 -13.1046 11.4774 178.495 18.7721 97.941 -12.6789 -6.00315 2.19772 63.6796 -2.56038 -1.12977 24.4854 1.14811 2.88413 -0.903787 8.18873 -90.3181 10.4933 -1.94617 -0.459254 -1.17621 -1.96453 -0.373114 -23.7203 -1.71816 -1.02307 -3.70767 -1.71818 -1.02307 90.878 -28.8082 -105.449 35.5136 2.01086 -8.67935 2.0102 5.00458 -48.5073 0.0235437 -0.185485 -32.6948 -89.4423 -44.489 78.3636 -31.1135 -5.81286 -28.3537 -16.8038 -18.8799 -19.061 -7.63732 1.19982 -32.1282 -0.696074 1.23785 -11.2463 -3.8906 2.69724 3.34149 
88.6246 96.2027 -60.6742 102.128 51.484 83.5892 -171.01 -22.8586 91.851 -18.0547 21.2454 0.527482 80.8011 14.7426 0.470182 23.6649 -7.03564 9.36902 178.122 22.8966 97.9841 -23.5717 -9.04009 1.59015 62.2364 0.092226 -2.2406 20.2061 2.57357 4.27213 -1.07319 8.08042 -90.3327 10.7098 -2.29044 -0.451426 -0.959128 -2.30808 -0.350149 -23.5073 -2.04883 -1.11919 -3.49463 -2.04884 -1.11919 90.8579 -29.114 -105.376 35.3068 2.4125 -6.9918 0.765414 3.63187 -49.6344 0.224491 -0.233549 -32.7599 -89.6221 -45.1741 78.2356 -30.7646 -5.45233 -27.9831 -17.2516 -19.5348 -19.023 -10.1875 1.67477 -30.891 -0.126091 1.07801 -10.0609 -4.30299 2.42913 2.38703 
92.2633 96.3221 -65.3764 101.812 52.1121 83.1028 -172.25 -19.3697 90.7142 -27.9605 21.879 1.48004 70.7742 7.83806 1.69007 37.5949 1.53432 7.16073 177.352 23.5707 97.4301 -30.7542 -9.82261 1.47905 62.5405 -0.198728 -1.72011 15.8693 4.29268 4.70305 -1.01335 7.97423 -90.3466 10.922 -2.17785 -0.483921 -0.747216 -2.19705 -0.387574 -23.2937 -1.93171 -1.1163 -3.28104 -1.93171 -1.1163 91.3655 -28.2809 -104.649 35.9488 2.32845 -7.21837 -0.71304 2.51056 -46.8275 0.949868 -0.485634 -35.4015 -89.7947 -45.9034 78.1333 -30.7285 -4.61767 -27.7093 -16.8694 -18.1916 -18.3701 -6.97325 1.08008 -32.7497 -0.0202022 0.581972 -8.30594 -4.20233 1.7162 1.58516 
